<svg xmlns="http://www.w3.org/2000/svg" viewBox="0 0 36.22 49.21"><defs><style>.cls-1{fill:#870e08;}.cls-1,.cls-2,.cls-3{stroke:#121903;stroke-linecap:round;stroke-linejoin:round;stroke-width:2px;}.cls-2{fill:#118941;}.cls-3{fill:none;}</style></defs><title>Asset 28</title><g id="Layer_2" data-name="Layer 2"><g id="Layer_2-2" data-name="Layer 2"><path class="cls-1" d="M9.43,39.16c1.71,1.42,8.68,4.94,8.68,9,0-4-7-7.57-8.68-9C6.93,37.09-1.51,32,1.73,22.42S17.81,13,17.81,13h.6s12.84-.19,16.08,9.42S29.29,37.2,26.8,39.27c-1.71,1.42-8.69,4.89-8.69,8.94"/><path class="cls-2" d="M16.14,13.18,11.75,2.9,8.11,4.45l4,9.41A25.16,25.16,0,0,1,16.14,13.18Z"/><path class="cls-2" d="M17.81,13h.6s1,.09,2,.23V1h-5V13.21C16.44,13.09,17.81,13,17.81,13Z"/><path class="cls-2" d="M24.63,14l4.08-9.55L25.07,2.9,20.65,13.24A25,25,0,0,1,24.63,14Z"/><line class="cls-3" x1="1.44" y1="26" x2="6.44" y2="26"/><line class="cls-3" x1="21.44" y1="35" x2="31.44" y2="35"/><line class="cls-3" x1="34.44" y1="26" x2="29.44" y2="26"/><line class="cls-3" x1="5.44" y1="18" x2="9.44" y2="18"/></g></g></svg>